<?xml version="1.0" standalone="no"?>
<!DOCTYPE svg PUBLIC "-//W3C//DTD SVG 20010904//EN"
 "http://www.w3.org/TR/2001/REC-SVG-20010904/DTD/svg10.dtd">
<svg version="1.0" xmlns="http://www.w3.org/2000/svg"
 width="1280.000000pt" height="640.000000pt" viewBox="0 0 1280.000000 640.000000"
 preserveAspectRatio="xMidYMid meet">
<metadata>
Created by potrace 1.15, written by Peter Selinger 2001-2017
</metadata>
<g transform="translate(0.000000,640.000000) scale(0.100000,-0.100000)"
fill="#000000" stroke="none">
<path d="M5065 4798 c-174 -32 -209 -39 -222 -47 -14 -7 67 -26 217 -49 l45
-7 21 -65 c40 -125 41 -122 -29 -146 -34 -12 -120 -48 -192 -79 -71 -32 -242
-106 -380 -165 -137 -60 -387 -167 -555 -240 -168 -73 -366 -158 -440 -190
-74 -32 -272 -117 -440 -190 -357 -155 -599 -259 -873 -377 l-197 -85 -73 68
c-188 179 -404 266 -661 265 -87 0 -223 -19 -272 -38 -12 -4 -14 40 -14 320
l0 326 -24 28 -24 28 -476 3 -476 3 0 -736 0 -735 115 0 c63 0 115 -3 115 -6
0 -3 -52 -62 -115 -130 l-115 -125 0 -310 0 -309 342 0 342 0 57 -40 c187
-131 424 -194 639 -170 174 20 315 72 450 166 l55 39 3560 5 3560 5 3 23 c2
12 -2 22 -8 22 -7 0 -10 51 -8 168 l3 167 141 3 142 3 30 -66 c115 -244 342
-434 602 -504 584 -158 1167 257 1197 852 3 59 7 107 9 107 2 0 157 20 346 45
189 25 353 45 366 45 l22 0 0 -245 0 -245 -24 -12 c-22 -9 -35 -4 -113 46 -48
32 -131 79 -183 104 l-95 47 -142 3 -143 4 0 -286 0 -286 763 0 c419 1 782 5
807 9 79 16 80 20 80 287 0 232 0 233 -24 261 -24 27 -26 28 -128 27 -93 -1
-192 -19 -331 -60 -16 -5 -17 8 -15 207 l3 212 135 27 c271 55 373 103 330
156 -37 44 -309 150 -550 215 -158 43 -189 51 -320 80 -426 95 -879 164 -1345
204 -38 4 -103 15 -143 26 -98 27 -233 37 -345 25 -51 -6 -132 -10 -182 -10
-49 0 -290 1 -535 2 -245 2 -599 -3 -787 -9 l-341 -11 -34 26 c-19 14 -51 32
-71 41 -49 20 -107 6 -188 -46 -42 -28 -71 -39 -97 -39 -29 0 -45 -7 -67 -30
-32 -34 -52 -36 -237 -23 -91 6 -98 8 -98 27 1 15 15 28 53 46 29 14 58 37 66
51 13 24 13 30 -3 54 -26 39 -116 77 -198 83 l-68 5 0 -117 0 -116 40 0 c37 0
52 -11 31 -24 -4 -3 -170 0 -367 6 l-359 12 -380 116 -380 117 -3 83 -3 83
-50 56 -50 56 -148 0 c-135 0 -151 2 -171 20 -27 24 -50 74 -50 110 0 22 4 25
33 25 62 0 67 15 67 208 0 159 -2 174 -20 192 -11 11 -31 20 -43 20 -21 0 -26
9 -46 80 -12 45 -24 87 -28 95 -4 12 4 15 38 16 24 0 60 6 79 13 29 11 35 18
35 42 0 23 -7 33 -35 46 -29 15 -61 18 -195 17 -88 -1 -182 -6 -210 -11z"/>
</g>
</svg>
