<?xml version="1.0" standalone="no"?>
<!DOCTYPE svg PUBLIC "-//W3C//DTD SVG 20010904//EN"
 "http://www.w3.org/TR/2001/REC-SVG-20010904/DTD/svg10.dtd">
<svg version="1.0" xmlns="http://www.w3.org/2000/svg"
 width="1056.000000pt" height="1280.000000pt" viewBox="0 0 1056.000000 1280.000000"
 preserveAspectRatio="xMidYMid meet">
<g transform="translate(0.000000,1280.000000) scale(0.100000,-0.100000)"
fill="#000000" stroke="none">
<path d="M10243 12771 c-47 -34 -114 -111 -237 -274 -72 -94 -94 -117 -114
-117 -80 0 -685 -297 -1034 -508 -72 -44 -91 -51 -107 -43 -98 53 -419 -102
-1183 -571 -842 -516 -1135 -686 -1292 -748 -69 -28 -87 -31 -135 -26 -87 10
-208 -34 -450 -163 -63 -34 -121 -61 -129 -61 -9 0 2 18 26 44 71 78 111 174
121 295 l6 76 105 37 c210 76 261 114 466 344 108 121 229 170 404 162 80 -3
88 -6 149 -46 82 -53 112 -54 315 -7 194 46 194 46 201 92 4 21 15 77 26 124
23 104 24 141 4 179 -44 84 -293 123 -548 85 -209 -32 -434 -101 -547 -170
-92 -56 -223 -103 -552 -199 -87 -25 -163 -46 -169 -46 -6 0 -24 11 -39 24
-48 40 -138 51 -400 50 -316 -2 -640 -27 -1495 -114 -844 -86 -1184 -104
-1214 -66 -4 6 -11 80 -15 165 -12 277 -39 506 -77 646 -12 44 -25 127 -29
185 -5 58 -13 119 -20 135 -20 53 -61 104 -108 135 -81 54 -156 70 -372 81
-222 12 -302 8 -414 -21 -100 -25 -312 -103 -396 -145 -153 -77 -254 -183
-291 -307 -25 -83 -24 -98 24 -378 123 -703 227 -1040 323 -1040 14 0 27 -6
29 -12 4 -13 45 -414 45 -443 0 -34 -155 -176 -380 -346 -288 -218 -379 -340
-435 -586 -34 -149 -151 -747 -180 -923 -163 -968 -88 -1549 237 -1845 72 -65
207 -134 309 -159 103 -25 239 -21 324 10 39 14 82 28 97 32 20 5 76 60 144
140 10 12 324 32 509 32 483 1 879 34 1085 91 169 46 325 154 347 240 6 20 17
35 27 37 29 6 99 -26 139 -62 32 -29 37 -40 37 -77 0 -24 4 -129 10 -234 5
-104 14 -296 20 -425 38 -848 67 -1302 96 -1528 32 -249 154 -774 355 -1537
161 -607 201 -750 220 -776 10 -15 37 -34 59 -43 26 -10 41 -23 45 -38 2 -13
21 -189 42 -393 30 -303 37 -411 38 -595 l0 -225 -32 -65 c-18 -36 -75 -121
-128 -190 -133 -174 -172 -231 -208 -308 -55 -119 -47 -234 22 -303 21 -21 49
-41 63 -44 39 -10 136 42 287 154 73 54 170 118 213 141 175 93 196 134 218
430 26 357 38 1148 21 1435 -4 66 -5 125 -3 132 4 13 360 170 502 221 52 18
124 37 160 40 l65 7 3 53 c6 103 -42 308 -282 1198 -169 630 -276 1055 -345
1378 -42 195 -101 504 -101 527 0 4 33 33 73 65 195 156 384 351 587 606 468
585 760 1178 787 1597 6 95 6 96 -14 79 -11 -10 -32 -18 -46 -18 -32 0 -34 14
-12 105 8 32 12 62 9 65 -3 3 -64 10 -136 15 -86 7 -133 14 -135 22 -7 20 770
632 1442 1138 959 721 1582 1139 1817 1219 61 20 78 13 79 -33 0 -33 1 -34 10
-12 23 58 -27 270 -122 517 -66 173 -85 231 -78 237 2 2 60 42 129 88 69 47
217 153 330 236 367 269 543 374 696 414 64 16 102 20 199 17 l119 -3 6 35 c4
19 27 74 53 123 26 48 47 95 47 105 0 10 -23 58 -52 107 -28 50 -73 137 -100
195 -48 101 -89 160 -113 160 -7 0 -30 -13 -52 -29z m-8656 -2062 c62 -28 113
-55 113 -60 0 -15 -162 -154 -179 -153 -19 0 -168 103 -175 119 -4 12 39 122
57 143 16 20 54 9 184 -49z m3763 -573 c0 -3 -53 -37 -117 -77 -330 -203 -685
-445 -917 -623 -75 -58 -143 -106 -151 -106 -17 0 -405 308 -405 321 0 13 10
12 74 -11 154 -52 350 -65 493 -30 106 25 185 65 358 182 165 110 337 207 513
289 116 54 152 67 152 55z m-3534 -2527 c141 -44 306 -132 587 -315 70 -46
127 -90 127 -97 0 -8 -7 -29 -16 -47 -10 -18 -20 -71 -23 -120 -7 -101 -15
-114 -86 -145 -76 -33 -138 -46 -270 -55 -129 -8 -625 7 -638 20 -5 4 1 36 12
70 24 73 26 96 9 133 -16 33 -25 33 -106 1 -98 -39 -149 -20 -196 74 -26 51
-56 179 -56 240 0 130 42 159 330 228 161 39 233 42 326 13z"/>
</g>
</svg>
